<?xml version="1.0" encoding="UTF-8"?>
<svg width="1063" height="233.7" version="1.1" xmlns="http://www.w3.org/2000/svg">
<title>Krups logo</title>
 <g transform="translate(364.5 -8.904)">
  <g transform="translate(35.43 35.52)">
   <path d="m-399.9 203h45.37v-105h0.6528l81.37 105h59.31l-96.92-119.6 93.03-106.6h-55.75l-81.7 97.25v-97.25h-45.37v226.3"/>
   <path d="m-77.8-23.44c38.54 0 69.67 31.24 69.67 69.81 0 32.04-24.78 57.61-54.23 65.8l75.66 90.65h-59.31l-82-105v105h-45.39v-226.3zm-50.31 108.9 0.0932-73.28h36.88c20.21 0 36.37 16.41 36.37 36.65 0 20.21-16.39 36.63-36.63 36.63h-36.72" style="fill-rule:evenodd"/>
   <path d="m384.1 12.49c20.59 0 37.16 16.69 37.16 37.28 0 20.61-16.41 35.72-37.02 35.72h-36.61l-0.0233-73.28zm13.29-35.93c38.54 0 69.67 31.24 69.67 69.81 0 38.54-31.24 69.78-69.78 69.78h-49.48l-0.1865 86.66h-45.39v-226.3h95.17" style="fill-rule:evenodd"/>
   <path d="m189 127.5c0 25.02-20.31 45.3-45.32 45.3-25.02 0-45.3-20.28-45.3-45.3v-150.9h-45.3v144.6c0 60.62 33.69 85.57 90.6 85.57 56.89 0 90.6-24.95 90.6-85.57v-144.6h-45.3l0.0233 150.9" style="fill-rule:evenodd"/>
   <path d="m647.3-19.01c-16.51-5.526-32.11-7.601-51.53-7.601-39.82 0-78.97 18.44-78.97 68.94 0 74.75 99.04 56.96 99.04 100 0 20.4-22.99 29.14-40.15 29.14-17.79 0-41.78-4.756-59.78-12.12v37.21c22.06 7.088 37.79 10.52 62.39 10.52 45.63 0 84.8-18.77 84.8-68.31 0-75.73-99.07-59.22-99.07-98.39 0-24.6 20.07-31.38 35.63-31.38 15.85 0 33.41 3.94 47.63 10.1v-38.1" style="fill-rule:evenodd"/>
  </g>
 </g>
</svg>
